<svg id="Layer_1" data-name="Layer 1" xmlns="http://www.w3.org/2000/svg" viewBox="0 0 48 48">
    <rect id="_Rectangle_" data-name="&lt;Rectangle&gt;" x="5" y="20" width="8" height="22"/>
    <rect id="_Rectangle_2" data-name="&lt;Rectangle&gt;" x="15" y="16" width="8" height="26"/>
    <rect id="_Rectangle_3" data-name="&lt;Rectangle&gt;" x="25" y="22" width="8" height="20"/>
    <rect id="_Rectangle_4" data-name="&lt;Rectangle&gt;" x="35" y="16" width="8" height="26"/>
    <path style="opacity:0.65;" d="M39,5.5A2.5,2.5,0,0,0,36.5,8a3,3,0,0,0,0,.31L30.45,12a2.47,2.47,0,0,0-2.9,0L21.47,8.32c0-.11,0-.21,0-.32a2.5,2.5,0,0,0-5-.08l-5.76,2.3a2.5,2.5,0,1,0,.74,1.86l5.76-2.3a2.48,2.48,0,0,0,3.2.25l6.08,3.65c0,.11,0,.21,0,.32a2.5,2.5,0,0,0,5,0,3,3,0,0,0,0-.31L37.55,10A2.5,2.5,0,1,0,39,5.5Z"/>
    <rect id="_Rectangle_5" data-name="&lt;Rectangle&gt;" style="fill:none;" width="48" height="48"/>
</svg>
