<svg id="Layer_1" data-name="Layer 1" xmlns="http://www.w3.org/2000/svg" viewBox="0 0 48 48">
    <rect id="_Rectangle_" data-name="&lt;Rectangle&gt;" style="fill:none;" width="48" height="48"/>
    <path d="M29.56,40H6v-.23l10-10,.12.12,1.77-1.77L17.77,28l5.73-5.73.12.12,1.77-1.77-.12-.12L37.77,8H38v8.18a11.89,11.89,0,0,1,2,.53V6H4V42H31.24C30.7,41.39,30.13,40.72,29.56,40ZM34.23,8,23.5,18.73,20.27,15.5,27.77,8Zm-10,0L18.5,13.73,12.77,8ZM6,8H9.23l12.5,12.5L16,26.23l-10-10ZM6,19.77,14.23,28,6,36.23Z"/>
    <path id="_Compound_Path_" data-name="&lt;Compound Path&gt;" d="M36,18a10,10,0,0,0-10,9.75c0,.23,0,.46,0,.7a9.88,9.88,0,0,0,.89,3.47C29.34,38,36,44,36,44s6.66-6,9.07-12.09A9.88,9.88,0,0,0,46,28.44c0-.24,0-.47,0-.7A10,10,0,0,0,36,18Zm0,14.16a4.34,4.34,0,1,1,4.17-4.33A4.25,4.25,0,0,1,36,32.16Z"/>
</svg>
