<svg xmlns="http://www.w3.org/2000/svg" viewBox="0 0 48 48">
  <polygon points="48 9 38 12 38 23 48 26 48 9"/>
  <path d="M4.71,8A4.71,4.71,0,0,0,0,12.71v10C0,25.26,1.4,27,4,27H39V8ZM33.5,24A2.5,2.5,0,1,1,36,21.5,2.5,2.5,0,0,1,33.5,24Z"/>
  <polygon points="17 41 2 41 2 37 15 37 17 41"/>
  <polygon points="25 25 17 41 14 37 20 25 25 25"/>
  <path style="fill-rule:evenodd; opacity:0.65;" d="M41.12,30.13A20.37,20.37,0,0,1,25.58,40.87L25.89,43a23.25,23.25,0,0,0,10-3.85,23.11,23.11,0,0,0,7.13-8Zm-7.87,5.22a14.28,14.28,0,0,0,4.29-4.52l-1.88-1.14A12.82,12.82,0,0,1,32,33.78a13.07,13.07,0,0,1-5.15,2l.59,1.91A13.89,13.89,0,0,0,33.25,35.35Zm-.45-5.69-1.5-.83a4.9,4.9,0,0,1-3.56,2.46l.35,1.65A6.49,6.49,0,0,0,32.8,29.66Z"/>
</svg>
