<svg id="Layer_1" data-name="Layer 1" xmlns="http://www.w3.org/2000/svg" viewBox="0 0 48 48">
    <path d="M43,17C43,8.72,34.49,2,24,2S5,8.72,5,17c0,7.3,6.61,14.92,15.35,16.64L24,44.06l3.65-10.42C36.39,31.92,43,24.3,43,17Z"/>
    <rect id="_Rectangle_" data-name="&lt;Rectangle&gt;" style="fill:none;" width="48" height="48"/>
    <path style="opacity:0.65;" d="M44.75,20.51c-1.11,6.19-6.19,11.7-13,14.15a7.62,7.62,0,0,0,1.1.71L36,41l2-4.44,1,0c5.52,0,9-5,9-9.58A8.74,8.74,0,0,0,44.75,20.51Z"/>
    <path style="opacity:0.65;" d="M9,36.58l1,0L12,41l3.19-5.63a7.62,7.62,0,0,0,1.1-.71c-6.85-2.45-11.93-8-13-14.15A8.74,8.74,0,0,0,0,27C0,31.58,3.48,36.58,9,36.58Z"/>
</svg>
